# This file uses centimeters as units for non-parametric coordinates.

mtllib earL.mtl
g default
v 5.708405 10.065210 7.267806
v 5.969240 10.105486 6.463190
v 6.756826 9.883225 6.081594
v 7.438563 9.509231 6.030612
v 8.095001 8.939516 6.331229
v 8.677387 8.434811 6.816920
v 5.962107 10.654443 7.129114
v 6.215402 10.593948 6.337808
v 6.984045 10.312106 5.979274
v 7.666408 9.937774 5.928245
v 8.351070 9.420813 6.224240
v 8.986261 9.013806 6.700723
v 6.270472 11.216107 6.954249
v 6.506962 11.075371 6.215318
v 7.197765 10.700256 5.896487
v 7.869142 10.331463 5.849385
v 8.572282 9.934913 6.114024
v 9.227621 9.623740 6.534739
v 6.649969 11.709878 6.792322
v 6.905120 11.662146 6.141772
v 7.569662 11.328834 5.908202
v 8.212549 10.938260 5.909500
v 8.829055 10.554034 6.168843
v 9.391238 10.245611 6.427172
v 7.117178 12.060022 6.531015
v 7.390029 12.185431 6.086241
v 8.114462 11.996773 6.071454
v 8.732122 11.530835 6.091180
v 9.075866 11.064589 6.156346
v 9.363835 10.741107 6.305508
v 7.714090 12.485438 6.395432
v 8.031340 12.601222 6.449147
v 8.919215 12.567464 6.548231
v 9.347006 12.181541 6.511447
v 9.421684 11.526420 6.379639
v 9.485134 11.233078 6.384841
v 7.457581 12.655652 6.206781
v 8.035783 12.750236 6.268883
v 9.174875 12.826591 6.295957
v 9.477402 12.545175 6.270338
v 9.467129 11.592437 6.034168
v 9.446085 11.233930 6.016719
v 7.499411 12.639652 5.940033
v 8.083979 12.701868 6.005504
v 9.193451 12.747570 6.027390
v 9.495975 12.466154 6.001772
v 9.440803 11.581406 5.882769
v 9.426075 11.229124 5.862673
v 7.614988 12.560893 5.756619
v 8.055952 12.539738 5.800297
v 8.838807 12.484508 5.883432
v 9.210819 12.148158 5.849731
v 9.243159 11.547827 5.708657
v 9.293673 11.277959 5.691091
v 6.941376 12.237224 5.830106
v 7.353367 12.228322 5.667312
v 8.061445 11.982298 5.623112
v 8.664366 11.517733 5.603627
v 9.028246 11.059198 5.672387
v 9.173340 10.800196 5.778553
v 6.470573 11.854473 6.039710
v 6.858763 11.723090 5.693851
v 7.537917 11.325378 5.449163
v 8.176542 10.945311 5.423537
v 8.799002 10.553807 5.659697
v 9.145702 10.310580 5.890958
v 6.061940 11.313744 6.180738
v 6.468922 11.080568 5.726661
v 7.162165 10.698242 5.437437
v 7.834235 10.329568 5.389427
v 8.544862 9.933342 5.579169
v 8.964307 9.690910 5.966302
v 5.712290 10.753352 6.296107
v 6.159207 10.589857 5.820803
v 6.943226 10.300761 5.516669
v 7.625588 9.926426 5.465641
v 8.315512 9.403768 5.665018
v 8.722277 9.092436 6.077262
v 5.427628 10.166719 6.433348
v 5.899579 10.098111 5.937655
v 6.712503 9.866062 5.614805
v 7.394242 9.492069 5.563825
v 8.056538 8.914838 5.777078
v 8.419660 8.525125 6.181013
v 5.331122 10.237923 6.859871
v 5.935718 10.177498 6.108124
v 6.776759 9.977883 5.735624
v 7.467869 9.598749 5.683941
v 8.119126 8.979754 5.951103
v 8.679477 8.400272 6.500159
v 5.389396 10.223761 7.163038
v 5.897261 10.214580 6.400778
v 6.724916 10.020505 6.012294
v 7.416026 9.641370 5.960611
v 8.065131 9.025462 6.259122
v 8.630009 8.445076 6.792585
v 8.986732 8.975079 6.393056
v 9.004909 8.985683 6.558324
v 9.220661 9.582922 6.231022
v 9.239849 9.596141 6.390697
v 9.375945 10.218600 6.122244
v 9.393733 10.229759 6.278796
v 9.341475 10.728946 5.994481
v 9.357744 10.735240 6.150209
v 5.593788 10.830624 6.720916
v 5.644521 10.815907 7.023986
v 5.921888 11.397979 6.550561
v 5.961341 11.381345 6.847478
v 6.322915 11.904550 6.375994
v 6.348828 11.876511 6.669603
v 6.813913 12.273120 6.118138
v 6.825106 12.242806 6.400899
vt 0.375000 0.000000
vt 0.425000 0.000000
vt 0.425000 0.050000
vt 0.375000 0.050000
vt 0.475000 0.000000
vt 0.475000 0.050000
vt 0.525000 0.000000
vt 0.525000 0.050000
vt 0.575000 0.000000
vt 0.575000 0.050000
vt 0.625000 0.000000
vt 0.625000 0.050000
vt 0.425000 0.100000
vt 0.375000 0.100000
vt 0.475000 0.100000
vt 0.525000 0.100000
vt 0.575000 0.100000
vt 0.625000 0.100000
vt 0.425000 0.150000
vt 0.375000 0.150000
vt 0.475000 0.150000
vt 0.525000 0.150000
vt 0.575000 0.150000
vt 0.625000 0.150000
vt 0.425000 0.200000
vt 0.375000 0.200000
vt 0.475000 0.200000
vt 0.525000 0.200000
vt 0.575000 0.200000
vt 0.625000 0.200000
vt 0.425000 0.250000
vt 0.375000 0.250000
vt 0.475000 0.250000
vt 0.525000 0.250000
vt 0.575000 0.250000
vt 0.625000 0.250000
vt 0.425000 0.333333
vt 0.375000 0.333333
vt 0.475000 0.333333
vt 0.525000 0.333333
vt 0.575000 0.333333
vt 0.625000 0.333333
vt 0.425000 0.416667
vt 0.375000 0.416667
vt 0.475000 0.416667
vt 0.525000 0.416667
vt 0.575000 0.416667
vt 0.625000 0.416667
vt 0.425000 0.500000
vt 0.375000 0.500000
vt 0.475000 0.500000
vt 0.525000 0.500000
vt 0.575000 0.500000
vt 0.625000 0.500000
vt 0.425000 0.550000
vt 0.375000 0.550000
vt 0.475000 0.550000
vt 0.525000 0.550000
vt 0.575000 0.550000
vt 0.625000 0.550000
vt 0.425000 0.600000
vt 0.375000 0.600000
vt 0.475000 0.600000
vt 0.525000 0.600000
vt 0.575000 0.600000
vt 0.625000 0.600000
vt 0.425000 0.650000
vt 0.375000 0.650000
vt 0.475000 0.650000
vt 0.525000 0.650000
vt 0.575000 0.650000
vt 0.625000 0.650000
vt 0.425000 0.700000
vt 0.375000 0.700000
vt 0.475000 0.700000
vt 0.525000 0.700000
vt 0.575000 0.700000
vt 0.625000 0.700000
vt 0.425000 0.750000
vt 0.375000 0.750000
vt 0.475000 0.750000
vt 0.525000 0.750000
vt 0.575000 0.750000
vt 0.625000 0.750000
vt 0.425000 0.833333
vt 0.375000 0.833333
vt 0.475000 0.833333
vt 0.525000 0.833333
vt 0.575000 0.833333
vt 0.625000 0.833333
vt 0.425000 0.916667
vt 0.375000 0.916667
vt 0.475000 0.916667
vt 0.525000 0.916667
vt 0.575000 0.916667
vt 0.625000 0.916667
vt 0.425000 1.000000
vt 0.375000 1.000000
vt 0.475000 1.000000
vt 0.525000 1.000000
vt 0.575000 1.000000
vt 0.625000 1.000000
vt 0.791667 0.000000
vt 0.875000 0.000000
vt 0.875000 0.050000
vt 0.791667 0.050000
vt 0.708333 0.000000
vt 0.708333 0.050000
vt 0.875000 0.100000
vt 0.791667 0.100000
vt 0.708333 0.100000
vt 0.875000 0.150000
vt 0.791667 0.150000
vt 0.708333 0.150000
vt 0.875000 0.200000
vt 0.791667 0.200000
vt 0.708333 0.200000
vt 0.875000 0.250000
vt 0.791667 0.250000
vt 0.708333 0.250000
vt 0.125000 0.000000
vt 0.208333 0.000000
vt 0.208333 0.050000
vt 0.125000 0.050000
vt 0.291667 0.000000
vt 0.291667 0.050000
vt 0.208333 0.100000
vt 0.125000 0.100000
vt 0.291667 0.100000
vt 0.208333 0.150000
vt 0.125000 0.150000
vt 0.291667 0.150000
vt 0.208333 0.200000
vt 0.125000 0.200000
vt 0.291667 0.200000
vt 0.208333 0.250000
vt 0.125000 0.250000
vt 0.291667 0.250000
vn 0.892942 -0.342619 0.292004
vn 0.861305 -0.302760 0.408033
vn 0.712895 -0.220063 0.665847
vn 0.888086 -0.350820 0.297034
vn 0.341529 0.052747 0.938390
vn 0.297526 0.054044 0.953183
vn -0.061488 0.257511 0.964317
vn -0.034046 0.224579 0.973861
vn -0.347995 0.369736 0.861507
vn -0.288849 0.340660 0.894716
vn -0.381057 0.380410 0.842665
vn -0.381647 0.378308 0.843344
vn 0.625020 -0.272966 0.731328
vn 0.848033 -0.414431 0.330283
vn 0.184161 -0.043682 0.981925
vn -0.069457 0.065382 0.995440
vn -0.301610 0.198213 0.932600
vn -0.390363 0.333697 0.858058
vn 0.479417 -0.359048 0.800777
vn 0.789864 -0.506814 0.345333
vn 0.090206 -0.130535 0.987331
vn -0.183517 -0.046395 0.981921
vn -0.346222 0.127607 0.929434
vn -0.401969 0.177805 0.898224
vn 0.173949 -0.432090 0.884896
vn 0.679920 -0.674460 0.287772
vn -0.112896 -0.321856 0.940033
vn -0.260728 -0.187926 0.946945
vn -0.338491 -0.040387 0.940103
vn -0.365736 0.110257 0.924165
vn -0.096975 -0.555460 0.825870
vn 0.508892 -0.819926 0.262204
vn -0.242108 -0.384272 0.890909
vn -0.286815 -0.324294 0.901427
vn -0.400291 -0.164327 0.901534
vn -0.471648 -0.048369 0.880460
vn -0.245032 0.644021 0.724704
vn -0.072453 0.736366 0.672693
vn -0.110728 0.973683 0.199201
vn -0.142168 0.989569 -0.023259
vn 0.242528 0.555210 0.795564
vn 0.174911 0.848105 0.500125
vn 0.716174 0.239755 0.655448
vn 0.894213 0.216039 0.392058
vn 0.977923 -0.001614 0.208959
vn 0.999474 -0.010719 0.030608
vn 0.997796 0.064630 0.015000
vn 0.998591 0.024090 -0.047287
vn -0.027188 0.873743 -0.485627
vn -0.014077 0.901295 -0.432976
vn 0.130247 0.826950 -0.546983
vn 0.795885 0.266167 -0.543804
vn 0.739827 0.090809 -0.666640
vn 0.851062 0.041837 -0.523395
vn 0.030577 0.781778 -0.622806
vn 0.021576 0.851930 -0.523212
vn 0.090288 0.512667 -0.853827
vn 0.377201 0.196766 -0.904987
vn 0.621890 0.111595 -0.775112
vn 0.722615 0.083106 -0.686237
vn -0.118044 0.343096 -0.931853
vn 0.079106 0.304152 -0.949333
vn -0.115620 0.259582 -0.958775
vn -0.424265 0.305947 -0.852289
vn 0.142414 0.257569 -0.955707
vn 0.059522 0.238034 -0.969431
vn 0.154583 0.236894 -0.959159
vn 0.184898 0.141454 -0.972524
vn 0.169876 0.115666 -0.978654
vn 0.260557 -0.003620 -0.965452
vn 0.156925 -0.106449 -0.981857
vn 0.393848 -0.189447 -0.899441
vn -0.328037 0.223842 -0.917762
vn -0.596064 0.299718 -0.744900
vn -0.093128 0.146442 -0.984826
vn 0.141805 0.067364 -0.987600
vn 0.391832 -0.103171 -0.914234
vn 0.533014 -0.187857 -0.824988
vn -0.440123 0.162119 -0.883181
vn -0.641874 0.272813 -0.716639
vn -0.180067 0.047709 -0.982497
vn 0.051604 -0.052932 -0.997264
vn 0.275712 -0.158652 -0.948057
vn 0.524686 -0.316678 -0.790202
vn -0.511700 0.111350 -0.851918
vn -0.683748 0.200956 -0.701502
vn -0.264984 -0.048165 -0.963049
vn -0.005475 -0.187234 -0.982300
vn 0.280207 -0.310266 -0.908416
vn 0.474418 -0.396642 -0.785877
vn -0.636661 0.145465 -0.757300
vn -0.691484 0.184442 -0.698449
vn -0.298073 -0.061100 -0.952586
vn 0.001679 -0.222265 -0.974985
vn 0.388315 -0.382622 -0.838339
vn 0.463490 -0.407228 -0.786983
vn 0.185210 -0.948247 0.257922
vn 0.019249 -0.845280 0.533977
vn -0.029021 -0.981441 0.189558
vn -0.005754 -0.999045 0.043317
vn -0.220859 -0.682703 0.696518
vn -0.231588 -0.874424 0.426322
vn -0.378518 -0.598929 0.705697
vn -0.571969 -0.698411 0.430202
vn -0.660956 -0.474850 0.581080
vn -0.766171 -0.618609 0.174084
vn -0.817253 -0.287749 0.499297
vn -0.713078 -0.701008 -0.010366
vn -0.233026 -0.939090 -0.252605
vn -0.461287 -0.853775 -0.241419
vn -0.321323 -0.944746 -0.064857
vn -0.615837 -0.779384 -0.115347
vn -0.653635 -0.736404 -0.174560
vn -0.546438 -0.791855 -0.272710
vn -0.477275 -0.829994 -0.288649
vn -0.472510 -0.845539 -0.248590
vn -0.424754 -0.539436 -0.727044
vn -0.218890 -0.533483 -0.816997
vn -0.153016 -0.712278 -0.685016
vn -0.156849 -0.759165 -0.631717
vn 0.841602 -0.516456 -0.158050
vn 0.600670 -0.443551 -0.665175
vn 0.602229 -0.405907 -0.687430
vn 0.745740 -0.453610 -0.487965
vn 0.848179 -0.528692 -0.032820
vn 0.896199 -0.428312 0.115655
vn 0.837919 -0.538870 -0.086664
vn 0.871236 -0.490211 -0.025304
vn 0.623228 -0.303895 -0.720579
vn 0.740902 -0.365766 -0.563276
vn 0.951754 -0.306857 -0.001741
vn 0.941427 -0.303118 0.147765
vn 0.683460 -0.197833 -0.702669
vn 0.794834 -0.205223 -0.571071
vn 0.991783 -0.118585 -0.047990
vn 0.977922 -0.196400 0.071390
vn 0.710209 -0.270809 -0.649819
vn 0.845946 -0.180841 -0.501669
vn 0.989601 -0.111788 -0.090515
vn 0.992811 -0.105475 -0.056582
vn 0.709650 -0.292433 -0.640999
vn 0.746030 -0.288005 -0.600410
vn 0.974493 -0.199959 -0.101883
vn 0.974123 -0.210624 -0.081990
vn -0.892989 0.347428 -0.286121
vn -0.905350 0.418438 0.072467
vn -0.894740 0.432865 -0.109853
vn -0.849072 0.401205 -0.343672
vn -0.292008 0.337075 0.895048
vn -0.542425 0.457949 0.704314
vn -0.163841 0.292093 0.942252
vn -0.157201 0.303967 0.939623
vn -0.835671 0.523874 -0.164955
vn -0.791825 0.464264 -0.396828
vn -0.520134 0.541909 0.660148
vn -0.125057 0.366753 0.921875
vn -0.728702 0.660310 -0.181613
vn -0.700434 0.597245 -0.390757
vn -0.377003 0.696568 0.610460
vn -0.102221 0.434601 0.894803
vn -0.600476 0.772037 -0.208295
vn -0.503016 0.752475 -0.425154
vn -0.346958 0.746637 0.567586
vn -0.032653 0.577927 0.815435
vn -0.485685 0.799608 -0.353182
vn -0.470805 0.770325 -0.430049
vn -0.467764 0.861145 0.199066
vn -0.140662 0.534162 0.833598
g earL
usemtl lambert7SG
f 1/1/1 2/2/2 8/3/3 7/4/4
f 2/2/2 3/5/5 9/6/6 8/3/3
f 3/5/5 4/7/7 10/8/8 9/6/6
f 4/7/7 5/9/9 11/10/10 10/8/8
f 5/9/9 6/11/11 12/12/12 11/10/10
f 7/4/4 8/3/3 14/13/13 13/14/14
f 8/3/3 9/6/6 15/15/15 14/13/13
f 9/6/6 10/8/8 16/16/16 15/15/15
f 10/8/8 11/10/10 17/17/17 16/16/16
f 11/10/10 12/12/12 18/18/18 17/17/17
f 13/14/14 14/13/13 20/19/19 19/20/20
f 14/13/13 15/15/15 21/21/21 20/19/19
f 15/15/15 16/16/16 22/22/22 21/21/21
f 16/16/16 17/17/17 23/23/23 22/22/22
f 17/17/17 18/18/18 24/24/24 23/23/23
f 19/20/20 20/19/19 26/25/25 25/26/26
f 20/19/19 21/21/21 27/27/27 26/25/25
f 21/21/21 22/22/22 28/28/28 27/27/27
f 22/22/22 23/23/23 29/29/29 28/28/28
f 23/23/23 24/24/24 30/30/30 29/29/29
f 25/26/26 26/25/25 32/31/31 31/32/32
f 26/25/25 27/27/27 33/33/33 32/31/31
f 27/27/27 28/28/28 34/34/34 33/33/33
f 28/28/28 29/29/29 35/35/35 34/34/34
f 29/29/29 30/30/30 36/36/36 35/35/35
usemtl lambert6SG
f 31/32/37 32/31/38 38/37/39 37/38/40
f 32/31/38 33/33/41 39/39/42 38/37/39
f 33/33/41 34/34/43 40/40/44 39/39/42
f 34/34/43 35/35/45 41/41/46 40/40/44
f 35/35/45 36/36/47 42/42/48 41/41/46
f 37/38/40 38/37/39 44/43/49 43/44/50
f 38/37/39 39/39/42 45/45/51 44/43/49
f 39/39/42 40/40/44 46/46/52 45/45/51
f 40/40/44 41/41/46 47/47/53 46/46/52
f 41/41/46 42/42/48 48/48/54 47/47/53
f 43/44/50 44/43/49 50/49/55 49/50/56
f 44/43/49 45/45/51 51/51/57 50/49/55
f 45/45/51 46/46/52 52/52/58 51/51/57
f 46/46/52 47/47/53 53/53/59 52/52/58
f 47/47/53 48/48/54 54/54/60 53/53/59
f 49/50/61 50/49/62 56/55/63 55/56/64
f 50/49/62 51/51/65 57/57/66 56/55/63
f 51/51/65 52/52/67 58/58/68 57/57/66
f 52/52/67 53/53/69 59/59/70 58/58/68
f 53/53/69 54/54/71 60/60/72 59/59/70
f 55/56/64 56/55/63 62/61/73 61/62/74
f 56/55/63 57/57/66 63/63/75 62/61/73
f 57/57/66 58/58/68 64/64/76 63/63/75
f 58/58/68 59/59/70 65/65/77 64/64/76
f 59/59/70 60/60/72 66/66/78 65/65/77
f 61/62/74 62/61/73 68/67/79 67/68/80
f 62/61/73 63/63/75 69/69/81 68/67/79
f 63/63/75 64/64/76 70/70/82 69/69/81
f 64/64/76 65/65/77 71/71/83 70/70/82
f 65/65/77 66/66/78 72/72/84 71/71/83
f 67/68/80 68/67/79 74/73/85 73/74/86
f 68/67/79 69/69/81 75/75/87 74/73/85
f 69/69/81 70/70/82 76/76/88 75/75/87
f 70/70/82 71/71/83 77/77/89 76/76/88
f 71/71/83 72/72/84 78/78/90 77/77/89
f 73/74/86 74/73/85 80/79/91 79/80/92
f 74/73/85 75/75/87 81/81/93 80/79/91
f 75/75/87 76/76/88 82/82/94 81/81/93
f 76/76/88 77/77/89 83/83/95 82/82/94
f 77/77/89 78/78/90 84/84/96 83/83/95
usemtl lambert7SG
f 79/80/97 80/79/98 86/85/99 85/86/100
f 80/79/98 81/81/101 87/87/102 86/85/99
f 81/81/101 82/82/103 88/88/104 87/87/102
f 82/82/103 83/83/105 89/89/106 88/88/104
f 83/83/105 84/84/107 90/90/108 89/89/106
f 85/86/100 86/85/99 92/91/109 91/92/110
f 86/85/99 87/87/102 93/93/111 92/91/109
f 87/87/102 88/88/104 94/94/112 93/93/111
f 88/88/104 89/89/106 95/95/113 94/94/112
f 89/89/106 90/90/108 96/96/114 95/95/113
f 91/92/110 92/91/109 2/97/115 1/98/116
f 92/91/109 93/93/111 3/99/117 2/97/115
f 93/93/111 94/94/112 4/100/118 3/99/117
f 94/94/112 95/95/113 5/101/119 4/100/118
f 95/95/113 96/96/114 6/102/120 5/101/119
usemtl lambert6SG
f 90/103/121 84/104/122 78/105/123 97/106/124
f 96/107/125 90/103/121 97/106/124 98/108/126
f 6/11/127 96/107/125 98/108/126 12/12/128
f 97/106/124 78/105/123 72/109/129 99/110/130
f 98/108/126 97/106/124 99/110/130 100/111/131
f 12/12/128 98/108/126 100/111/131 18/18/132
f 99/110/130 72/109/129 66/112/133 101/113/134
f 100/111/131 99/110/130 101/113/134 102/114/135
f 18/18/132 100/111/131 102/114/135 24/24/136
f 101/113/134 66/112/133 60/115/137 103/116/138
f 102/114/135 101/113/134 103/116/138 104/117/139
f 24/24/136 102/114/135 104/117/139 30/30/140
f 103/116/138 60/115/137 54/118/141 48/119/142
f 104/117/139 103/116/138 48/119/142 42/120/143
f 30/30/140 104/117/139 42/120/143 36/36/144
f 79/121/145 85/122/146 105/123/147 73/124/148
f 85/122/146 91/125/149 106/126/150 105/123/147
f 91/125/149 1/1/151 7/4/152 106/126/150
f 73/124/148 105/123/147 107/127/153 67/128/154
f 105/123/147 106/126/150 108/129/155 107/127/153
f 106/126/150 7/4/152 13/14/156 108/129/155
f 67/128/154 107/127/153 109/130/157 61/131/158
f 107/127/153 108/129/155 110/132/159 109/130/157
f 108/129/155 13/14/156 19/20/160 110/132/159
f 61/131/158 109/130/157 111/133/161 55/134/162
f 109/130/157 110/132/159 112/135/163 111/133/161
f 110/132/159 19/20/160 25/26/164 112/135/163
f 55/134/162 111/133/161 43/136/165 49/137/166
f 111/133/161 112/135/163 37/138/167 43/136/165
f 112/135/163 25/26/164 31/32/168 37/138/167
