# This file uses centimeters as units for non-parametric coordinates.

mtllib earR.mtl
g default
v -3.377119 10.065210 7.267806
v -3.637954 10.105485 6.463190
v -4.425541 9.883225 6.081594
v -5.107278 9.509231 6.030612
v -5.763715 8.939516 6.331229
v -6.346101 8.434811 6.816920
v -3.630822 10.654443 7.129114
v -3.884117 10.593949 6.337807
v -4.652760 10.312107 5.979273
v -5.335123 9.937772 5.928245
v -6.019784 9.420813 6.224240
v -6.654976 9.013805 6.700724
v -3.939186 11.216107 6.954249
v -4.175676 11.075370 6.215318
v -4.866481 10.700256 5.896487
v -5.537856 10.331462 5.849385
v -6.240996 9.934913 6.114024
v -6.896335 9.623740 6.534739
v -4.318684 11.709878 6.792322
v -4.573835 11.662146 6.141772
v -5.238376 11.328833 5.908202
v -5.881263 10.938260 5.909500
v -6.497770 10.554035 6.168843
v -7.059952 10.245610 6.427171
v -4.785893 12.060023 6.531015
v -5.058744 12.185432 6.086241
v -5.783177 11.996773 6.071454
v -6.400835 11.530834 6.091180
v -6.744580 11.064589 6.156346
v -7.032549 10.741106 6.305509
v -5.382804 12.485437 6.395432
v -5.700054 12.601221 6.449146
v -6.587930 12.567464 6.548231
v -7.015722 12.181540 6.511448
v -7.090397 11.526420 6.379639
v -7.153849 11.233077 6.384841
v -5.126296 12.655652 6.206781
v -5.704498 12.750236 6.268883
v -6.843588 12.826589 6.295957
v -7.146116 12.545175 6.270338
v -7.135843 11.592435 6.034167
v -7.114800 11.233928 6.016719
v -5.168124 12.639652 5.940033
v -5.752694 12.701868 6.005504
v -6.862163 12.747570 6.027390
v -7.164688 12.466155 6.001772
v -7.109517 11.581405 5.882769
v -7.094789 11.229123 5.862673
v -5.283702 12.560893 5.756619
v -5.724666 12.539738 5.800297
v -6.507521 12.484508 5.883432
v -6.879534 12.148158 5.849732
v -6.911873 11.547826 5.708657
v -6.962387 11.277958 5.691091
v -4.610090 12.237225 5.830106
v -5.022082 12.228321 5.667312
v -5.730159 11.982297 5.623112
v -6.333080 11.517733 5.603627
v -6.696961 11.059198 5.672386
v -6.842054 10.800196 5.778553
v -4.139288 11.854473 6.039710
v -4.527477 11.723089 5.693851
v -5.206632 11.325377 5.449163
v -5.845257 10.945311 5.423536
v -6.467716 10.553807 5.659697
v -6.814416 10.310580 5.890959
v -3.730654 11.313744 6.180738
v -4.137637 11.080568 5.726661
v -4.830880 10.698242 5.437437
v -5.502951 10.329568 5.389427
v -6.213576 9.933341 5.579169
v -6.633021 9.690910 5.966302
v -3.381005 10.753352 6.296107
v -3.827921 10.589856 5.820803
v -4.611941 10.300761 5.516669
v -5.294303 9.926425 5.465641
v -5.984226 9.403768 5.665018
v -6.390991 9.092436 6.077261
v -3.096342 10.166719 6.433348
v -3.568293 10.098111 5.937655
v -4.381217 9.866062 5.614805
v -5.062956 9.492069 5.563825
v -5.725252 8.914837 5.777077
v -6.088374 8.525125 6.181013
v -2.999837 10.237923 6.859872
v -3.604433 10.177497 6.108124
v -4.445474 9.977883 5.735623
v -5.136584 9.598749 5.683941
v -5.787840 8.979754 5.951103
v -6.348190 8.400272 6.500159
v -3.058110 10.223761 7.163038
v -3.565976 10.214580 6.400778
v -4.393631 10.020505 6.012294
v -5.084741 9.641370 5.960611
v -5.733846 9.025463 6.259121
v -6.298725 8.445076 6.792585
v -6.655447 8.975079 6.393056
v -6.673623 8.985683 6.558325
v -6.889375 9.582921 6.231022
v -6.908563 9.596141 6.390697
v -7.044659 10.218599 6.122243
v -7.062446 10.229758 6.278796
v -7.010189 10.728945 5.994481
v -7.026458 10.735238 6.150209
v -3.262504 10.830624 6.720916
v -3.313235 10.815907 7.023986
v -3.590603 11.397979 6.550561
v -3.630056 11.381345 6.847478
v -3.991630 11.904550 6.375994
v -4.017543 11.876511 6.669603
v -4.482627 12.273120 6.118137
v -4.493820 12.242806 6.400899
vt 0.375000 0.000000
vt 0.375000 0.050000
vt 0.425000 0.050000
vt 0.425000 0.000000
vt 0.475000 0.050000
vt 0.475000 0.000000
vt 0.525000 0.050000
vt 0.525000 0.000000
vt 0.575000 0.050000
vt 0.575000 0.000000
vt 0.625000 0.050000
vt 0.625000 0.000000
vt 0.375000 0.100000
vt 0.425000 0.100000
vt 0.475000 0.100000
vt 0.525000 0.100000
vt 0.575000 0.100000
vt 0.625000 0.100000
vt 0.375000 0.150000
vt 0.425000 0.150000
vt 0.475000 0.150000
vt 0.525000 0.150000
vt 0.575000 0.150000
vt 0.625000 0.150000
vt 0.375000 0.200000
vt 0.425000 0.200000
vt 0.475000 0.200000
vt 0.525000 0.200000
vt 0.575000 0.200000
vt 0.625000 0.200000
vt 0.375000 0.250000
vt 0.425000 0.250000
vt 0.475000 0.250000
vt 0.525000 0.250000
vt 0.575000 0.250000
vt 0.625000 0.250000
vt 0.375000 0.333333
vt 0.425000 0.333333
vt 0.475000 0.333333
vt 0.525000 0.333333
vt 0.575000 0.333333
vt 0.625000 0.333333
vt 0.375000 0.416667
vt 0.425000 0.416667
vt 0.475000 0.416667
vt 0.525000 0.416667
vt 0.575000 0.416667
vt 0.625000 0.416667
vt 0.375000 0.500000
vt 0.425000 0.500000
vt 0.475000 0.500000
vt 0.525000 0.500000
vt 0.575000 0.500000
vt 0.625000 0.500000
vt 0.375000 0.550000
vt 0.425000 0.550000
vt 0.475000 0.550000
vt 0.525000 0.550000
vt 0.575000 0.550000
vt 0.625000 0.550000
vt 0.375000 0.600000
vt 0.425000 0.600000
vt 0.475000 0.600000
vt 0.525000 0.600000
vt 0.575000 0.600000
vt 0.625000 0.600000
vt 0.375000 0.650000
vt 0.425000 0.650000
vt 0.475000 0.650000
vt 0.525000 0.650000
vt 0.575000 0.650000
vt 0.625000 0.650000
vt 0.375000 0.700000
vt 0.425000 0.700000
vt 0.475000 0.700000
vt 0.525000 0.700000
vt 0.575000 0.700000
vt 0.625000 0.700000
vt 0.375000 0.750000
vt 0.425000 0.750000
vt 0.475000 0.750000
vt 0.525000 0.750000
vt 0.575000 0.750000
vt 0.625000 0.750000
vt 0.375000 0.833333
vt 0.425000 0.833333
vt 0.475000 0.833333
vt 0.525000 0.833333
vt 0.575000 0.833333
vt 0.625000 0.833333
vt 0.375000 0.916667
vt 0.425000 0.916667
vt 0.475000 0.916667
vt 0.525000 0.916667
vt 0.575000 0.916667
vt 0.625000 0.916667
vt 0.375000 1.000000
vt 0.425000 1.000000
vt 0.475000 1.000000
vt 0.525000 1.000000
vt 0.575000 1.000000
vt 0.625000 1.000000
vt 0.791667 0.000000
vt 0.791667 0.050000
vt 0.875000 0.050000
vt 0.875000 0.000000
vt 0.708333 0.000000
vt 0.708333 0.050000
vt 0.791667 0.100000
vt 0.875000 0.100000
vt 0.708333 0.100000
vt 0.791667 0.150000
vt 0.875000 0.150000
vt 0.708333 0.150000
vt 0.791667 0.200000
vt 0.875000 0.200000
vt 0.708333 0.200000
vt 0.791667 0.250000
vt 0.875000 0.250000
vt 0.708333 0.250000
vt 0.125000 0.000000
vt 0.125000 0.050000
vt 0.208333 0.050000
vt 0.208333 0.000000
vt 0.291667 0.050000
vt 0.291667 0.000000
vt 0.125000 0.100000
vt 0.208333 0.100000
vt 0.291667 0.100000
vt 0.125000 0.150000
vt 0.208333 0.150000
vt 0.291667 0.150000
vt 0.125000 0.200000
vt 0.208333 0.200000
vt 0.291667 0.200000
vt 0.125000 0.250000
vt 0.208333 0.250000
vt 0.291667 0.250000
vn -0.892942 -0.342619 0.292003
vn -0.889102 -0.349122 0.295992
vn -0.713800 -0.222007 0.664231
vn -0.867642 -0.309860 0.388824
vn -0.297091 0.056261 0.953190
vn -0.369397 0.037134 0.928529
vn 0.038669 0.223593 0.973915
vn 0.039287 0.247184 0.968172
vn 0.288108 0.340418 0.895047
vn 0.353997 0.371703 0.858209
vn 0.381530 0.378724 0.843210
vn 0.381056 0.380409 0.842665
vn -0.850173 -0.410733 0.329401
vn -0.643363 -0.284849 0.710595
vn -0.191909 -0.040712 0.980568
vn 0.120033 0.063897 0.990711
vn 0.302336 0.202200 0.931508
vn 0.389497 0.339138 0.856316
vn -0.791315 -0.503918 0.346248
vn -0.492833 -0.369075 0.787971
vn -0.045113 -0.135309 0.989776
vn 0.168978 -0.036400 0.984948
vn 0.343929 0.128726 0.930131
vn 0.402518 0.177724 0.897994
vn -0.686876 -0.667024 0.288584
vn -0.075459 -0.413147 0.907533
vn 0.106187 -0.296852 0.949001
vn 0.246286 -0.171962 0.953820
vn 0.334585 -0.037042 0.941637
vn 0.362462 0.114787 0.924903
vn -0.508891 -0.819926 0.262204
vn 0.066469 -0.580308 0.811680
vn 0.204043 -0.434431 0.877289
vn 0.282116 -0.330362 0.900706
vn 0.398298 -0.167357 0.901860
vn 0.471647 -0.048370 0.880460
vn 0.245033 0.644020 0.724705
vn 0.170611 0.977587 0.123348
vn 0.105582 0.930770 0.350028
vn 0.085423 0.730522 0.677525
vn -0.182894 0.903610 0.387349
vn -0.117191 0.646351 0.753987
vn -0.926301 0.223864 0.303070
vn -0.654461 0.278147 0.703076
vn -0.999485 -0.011281 0.030052
vn -0.976779 -0.003453 0.214221
vn -0.998672 0.025879 -0.044558
vn -0.997796 0.064636 0.015001
vn 0.042532 0.933152 -0.356957
vn 0.036063 0.919343 -0.391801
vn -0.185436 0.777483 -0.600944
vn -0.731024 0.237929 -0.639527
vn -0.745182 0.089504 -0.660828
vn -0.855563 0.040089 -0.516144
vn -0.021575 0.851930 -0.523210
vn -0.036691 0.724891 -0.687886
vn -0.105752 0.475848 -0.873147
vn -0.405914 0.182615 -0.895480
vn -0.624449 0.110936 -0.773147
vn -0.722614 0.083108 -0.686237
vn 0.118044 0.343096 -0.931853
vn 0.449357 0.301154 -0.841061
vn 0.077243 0.258938 -0.962800
vn -0.070333 0.306163 -0.949377
vn -0.045194 0.235921 -0.970721
vn -0.127971 0.269260 -0.954527
vn -0.172623 0.142008 -0.974697
vn -0.154227 0.239116 -0.958664
vn -0.261605 -0.010485 -0.965118
vn -0.169788 0.113468 -0.978926
vn -0.397759 -0.190786 -0.897435
vn -0.156928 -0.106451 -0.981856
vn 0.598546 0.299727 -0.742904
vn 0.338113 0.217158 -0.915709
vn 0.053979 0.152298 -0.986860
vn -0.133475 0.054563 -0.989549
vn -0.388127 -0.106381 -0.915446
vn -0.534438 -0.187742 -0.824092
vn 0.644175 0.271078 -0.715231
vn 0.455495 0.164821 -0.874848
vn 0.186058 0.046231 -0.981450
vn -0.092573 -0.046589 -0.994615
vn -0.275745 -0.162568 -0.947384
vn -0.523391 -0.323884 -0.788138
vn 0.685629 0.196996 -0.700789
vn 0.514051 0.114092 -0.850138
vn 0.264965 -0.049702 -0.962976
vn 0.001739 -0.186086 -0.982532
vn -0.284309 -0.310430 -0.907084
vn -0.471828 -0.399170 -0.786157
vn 0.691485 0.184443 -0.698448
vn 0.646371 0.152195 -0.747691
vn 0.320590 -0.048319 -0.945985
vn 0.015115 -0.213624 -0.976799
vn -0.393788 -0.384489 -0.834925
vn -0.463490 -0.407228 -0.786983
vn -0.185211 -0.948249 0.257918
vn 0.006294 -0.999068 0.042704
vn 0.030921 -0.982200 0.185278
vn -0.018138 -0.844271 0.535609
vn 0.260591 -0.899433 0.350874
vn 0.247022 -0.659667 0.709803
vn 0.557392 -0.665081 0.496972
vn 0.457175 -0.573428 0.679831
vn 0.766491 -0.615401 0.183774
vn 0.662711 -0.473156 0.580463
vn 0.713696 -0.700395 -0.009167
vn 0.817252 -0.287753 0.499297
vn 0.461199 -0.853838 -0.241364
vn 0.236013 -0.937208 -0.256787
vn 0.302379 -0.944279 -0.130017
vn 0.603139 -0.795023 -0.064502
vn 0.655548 -0.736211 -0.168076
vn 0.570072 -0.785169 -0.241926
vn 0.472511 -0.845539 -0.248591
vn 0.477414 -0.829469 -0.289927
vn 0.438349 -0.546451 -0.713611
vn 0.237390 -0.525856 -0.816775
vn 0.151706 -0.697580 -0.700262
vn 0.156824 -0.759140 -0.631753
vn -0.852724 -0.514106 -0.092503
vn -0.738680 -0.451423 -0.500569
vn -0.602296 -0.403174 -0.688977
vn -0.600669 -0.443550 -0.665177
vn -0.846608 -0.530553 -0.042061
vn -0.895813 -0.428079 0.119446
vn -0.837921 -0.538868 -0.086663
vn -0.866000 -0.498762 -0.035786
vn -0.740732 -0.367207 -0.562562
vn -0.624397 -0.297781 -0.722118
vn -0.951560 -0.307455 -0.002390
vn -0.940359 -0.305412 0.149832
vn -0.787935 -0.206745 -0.580013
vn -0.687070 -0.192333 -0.700673
vn -0.991579 -0.119158 -0.050717
vn -0.977880 -0.196583 0.071451
vn -0.848187 -0.179607 -0.498318
vn -0.710176 -0.272661 -0.649081
vn -0.989594 -0.112097 -0.090208
vn -0.993070 -0.103297 -0.056054
vn -0.742671 -0.288462 -0.604342
vn -0.709648 -0.292433 -0.641001
vn -0.974495 -0.199725 -0.102315
vn -0.974123 -0.210624 -0.081990
vn 0.892989 0.347428 -0.286121
vn 0.846624 0.403886 -0.346559
vn 0.894872 0.432726 -0.109326
vn 0.902431 0.420789 0.092489
vn 0.546371 0.457291 0.701687
vn 0.267135 0.328731 0.905856
vn 0.157237 0.303902 0.939638
vn 0.163841 0.292092 0.942252
vn 0.788222 0.467919 -0.399698
vn 0.835527 0.524549 -0.163531
vn 0.520962 0.539680 0.661320
vn 0.125086 0.366509 0.921968
vn 0.694477 0.605128 -0.389257
vn 0.728506 0.658956 -0.187234
vn 0.386739 0.697226 0.603579
vn 0.101432 0.435857 0.894282
vn 0.490413 0.759629 -0.427153
vn 0.602576 0.772698 -0.199601
vn 0.338676 0.738204 0.583398
vn 0.026645 0.580122 0.814094
vn 0.470805 0.770325 -0.430050
vn 0.480647 0.789568 -0.381524
vn 0.479677 0.864296 0.151333
vn 0.140662 0.534163 0.833597
g earR
usemtl lambert7SG
f 1/1/1 7/2/2 8/3/3 2/4/4
f 2/4/4 8/3/3 9/5/5 3/6/6
f 3/6/6 9/5/5 10/7/7 4/8/8
f 4/8/8 10/7/7 11/9/9 5/10/10
f 5/10/10 11/9/9 12/11/11 6/12/12
f 7/2/2 13/13/13 14/14/14 8/3/3
f 8/3/3 14/14/14 15/15/15 9/5/5
f 9/5/5 15/15/15 16/16/16 10/7/7
f 10/7/7 16/16/16 17/17/17 11/9/9
f 11/9/9 17/17/17 18/18/18 12/11/11
f 13/13/13 19/19/19 20/20/20 14/14/14
f 14/14/14 20/20/20 21/21/21 15/15/15
f 15/15/15 21/21/21 22/22/22 16/16/16
f 16/16/16 22/22/22 23/23/23 17/17/17
f 17/17/17 23/23/23 24/24/24 18/18/18
f 19/19/19 25/25/25 26/26/26 20/20/20
f 20/20/20 26/26/26 27/27/27 21/21/21
f 21/21/21 27/27/27 28/28/28 22/22/22
f 22/22/22 28/28/28 29/29/29 23/23/23
f 23/23/23 29/29/29 30/30/30 24/24/24
f 25/25/25 31/31/31 32/32/32 26/26/26
f 26/26/26 32/32/32 33/33/33 27/27/27
f 27/27/27 33/33/33 34/34/34 28/28/28
f 28/28/28 34/34/34 35/35/35 29/29/29
f 29/29/29 35/35/35 36/36/36 30/30/30
usemtl lambert6SG
f 31/31/37 37/37/38 38/38/39 32/32/40
f 32/32/40 38/38/39 39/39/41 33/33/42
f 33/33/42 39/39/41 40/40/43 34/34/44
f 34/34/44 40/40/43 41/41/45 35/35/46
f 35/35/46 41/41/45 42/42/47 36/36/48
f 37/37/38 43/43/49 44/44/50 38/38/39
f 38/38/39 44/44/50 45/45/51 39/39/41
f 39/39/41 45/45/51 46/46/52 40/40/43
f 40/40/43 46/46/52 47/47/53 41/41/45
f 41/41/45 47/47/53 48/48/54 42/42/47
f 43/43/49 49/49/55 50/50/56 44/44/50
f 44/44/50 50/50/56 51/51/57 45/45/51
f 45/45/51 51/51/57 52/52/58 46/46/52
f 46/46/52 52/52/58 53/53/59 47/47/53
f 47/47/53 53/53/59 54/54/60 48/48/54
f 49/49/61 55/55/62 56/56/63 50/50/64
f 50/50/64 56/56/63 57/57/65 51/51/66
f 51/51/66 57/57/65 58/58/67 52/52/68
f 52/52/68 58/58/67 59/59/69 53/53/70
f 53/53/70 59/59/69 60/60/71 54/54/72
f 55/55/62 61/61/73 62/62/74 56/56/63
f 56/56/63 62/62/74 63/63/75 57/57/65
f 57/57/65 63/63/75 64/64/76 58/58/67
f 58/58/67 64/64/76 65/65/77 59/59/69
f 59/59/69 65/65/77 66/66/78 60/60/71
f 61/61/73 67/67/79 68/68/80 62/62/74
f 62/62/74 68/68/80 69/69/81 63/63/75
f 63/63/75 69/69/81 70/70/82 64/64/76
f 64/64/76 70/70/82 71/71/83 65/65/77
f 65/65/77 71/71/83 72/72/84 66/66/78
f 67/67/79 73/73/85 74/74/86 68/68/80
f 68/68/80 74/74/86 75/75/87 69/69/81
f 69/69/81 75/75/87 76/76/88 70/70/82
f 70/70/82 76/76/88 77/77/89 71/71/83
f 71/71/83 77/77/89 78/78/90 72/72/84
f 73/73/85 79/79/91 80/80/92 74/74/86
f 74/74/86 80/80/92 81/81/93 75/75/87
f 75/75/87 81/81/93 82/82/94 76/76/88
f 76/76/88 82/82/94 83/83/95 77/77/89
f 77/77/89 83/83/95 84/84/96 78/78/90
usemtl lambert7SG
f 79/79/97 85/85/98 86/86/99 80/80/100
f 80/80/100 86/86/99 87/87/101 81/81/102
f 81/81/102 87/87/101 88/88/103 82/82/104
f 82/82/104 88/88/103 89/89/105 83/83/106
f 83/83/106 89/89/105 90/90/107 84/84/108
f 85/85/98 91/91/109 92/92/110 86/86/99
f 86/86/99 92/92/110 93/93/111 87/87/101
f 87/87/101 93/93/111 94/94/112 88/88/103
f 88/88/103 94/94/112 95/95/113 89/89/105
f 89/89/105 95/95/113 96/96/114 90/90/107
f 91/91/109 1/97/115 2/98/116 92/92/110
f 92/92/110 2/98/116 3/99/117 93/93/111
f 93/93/111 3/99/117 4/100/118 94/94/112
f 94/94/112 4/100/118 5/101/119 95/95/113
f 95/95/113 5/101/119 6/102/120 96/96/114
usemtl lambert6SG
f 90/103/121 97/104/122 78/105/123 84/106/124
f 96/107/125 98/108/126 97/104/122 90/103/121
f 6/12/127 12/11/128 98/108/126 96/107/125
f 97/104/122 99/109/129 72/110/130 78/105/123
f 98/108/126 100/111/131 99/109/129 97/104/122
f 12/11/128 18/18/132 100/111/131 98/108/126
f 99/109/129 101/112/133 66/113/134 72/110/130
f 100/111/131 102/114/135 101/112/133 99/109/129
f 18/18/132 24/24/136 102/114/135 100/111/131
f 101/112/133 103/115/137 60/116/138 66/113/134
f 102/114/135 104/117/139 103/115/137 101/112/133
f 24/24/136 30/30/140 104/117/139 102/114/135
f 103/115/137 48/118/141 54/119/142 60/116/138
f 104/117/139 42/120/143 48/118/141 103/115/137
f 30/30/140 36/36/144 42/120/143 104/117/139
f 79/121/145 73/122/146 105/123/147 85/124/148
f 85/124/148 105/123/147 106/125/149 91/126/150
f 91/126/150 106/125/149 7/2/151 1/1/152
f 73/122/146 67/127/153 107/128/154 105/123/147
f 105/123/147 107/128/154 108/129/155 106/125/149
f 106/125/149 108/129/155 13/13/156 7/2/151
f 67/127/153 61/130/157 109/131/158 107/128/154
f 107/128/154 109/131/158 110/132/159 108/129/155
f 108/129/155 110/132/159 19/19/160 13/13/156
f 61/130/157 55/133/161 111/134/162 109/131/158
f 109/131/158 111/134/162 112/135/163 110/132/159
f 110/132/159 112/135/163 25/25/164 19/19/160
f 55/133/161 49/136/165 43/137/166 111/134/162
f 111/134/162 43/137/166 37/138/167 112/135/163
f 112/135/163 37/138/167 31/31/168 25/25/164
